<svg xmlns="http://www.w3.org/2000/svg" viewBox="0 0 200 250" width="200" height="250">
  <!-- Bouton poussoir (Push Button) -->
  <defs>
    <linearGradient id="buttonGradient" x1="0%" y1="0%" x2="0%" y2="100%">
      <stop offset="0%" style="stop-color:#ff4444;stop-opacity:1" />
      <stop offset="50%" style="stop-color:#cc0000;stop-opacity:1" />
      <stop offset="100%" style="stop-color:#990000;stop-opacity:1" />
    </linearGradient>
    <radialGradient id="shine" cx="40%" cy="40%" r="50%">
      <stop offset="0%" style="stop-color:#ffffff;stop-opacity:0.6" />
      <stop offset="100%" style="stop-color:#ffffff;stop-opacity:0" />
    </radialGradient>
    <linearGradient id="bodyGrad" x1="0%" y1="0%" x2="0%" y2="100%">
      <stop offset="0%" style="stop-color:#424242;stop-opacity:1" />
      <stop offset="100%" style="stop-color:#1a1a1a;stop-opacity:1" />
    </linearGradient>
  </defs>
  
  <!-- Broches -->
  <!-- Broche gauche haut -->
  <rect x="30" y="90" width="8" height="30" fill="#c0c0c0" stroke="#888" stroke-width="1"/>
  <rect x="20" y="120" width="28" height="110" fill="#a0a0a0" stroke="#707070" stroke-width="1" rx="2"/>
  
  <!-- Broche droite haut -->
  <rect x="162" y="90" width="8" height="30" fill="#c0c0c0" stroke="#888" stroke-width="1"/>
  <rect x="152" y="120" width="28" height="110" fill="#a0a0a0" stroke="#707070" stroke-width="1" rx="2"/>
  
  <!-- Broche gauche bas -->
  <rect x="62" y="90" width="8" height="30" fill="#c0c0c0" stroke="#888" stroke-width="1"/>
  <rect x="52" y="120" width="28" height="110" fill="#a0a0a0" stroke="#707070" stroke-width="1" rx="2"/>
  
  <!-- Broche droite bas -->
  <rect x="130" y="90" width="8" height="30" fill="#c0c0c0" stroke="#888" stroke-width="1"/>
  <rect x="120" y="120" width="28" height="110" fill="#a0a0a0" stroke="#707070" stroke-width="1" rx="2"/>
  
  <!-- Corps du bouton -->
  <rect x="50" y="50" width="100" height="70" fill="url(#bodyGrad)" stroke="#000" stroke-width="2" rx="5"/>
  
  <!-- Bouton poussoir (partie cliquable) -->
  <circle cx="100" cy="50" r="35" fill="url(#buttonGradient)" stroke="#660000" stroke-width="3"/>
  <circle cx="100" cy="50" r="35" fill="url(#shine)"/>
  
  <!-- Petit cercle central -->
  <circle cx="100" cy="50" r="20" fill="none" stroke="#fff" stroke-width="1" opacity="0.3"/>
  
  <!-- Ombre du bouton -->
  <ellipse cx="100" cy="115" rx="40" ry="8" fill="#000" opacity="0.3"/>
  
  <!-- Texte -->
  <text x="100" y="20" font-family="Arial, sans-serif" font-size="14" font-weight="bold" fill="#333" text-anchor="middle">Bouton Poussoir</text>
  <text x="100" y="245" font-family="Arial, sans-serif" font-size="11" fill="#666" text-anchor="middle">Push Button</text>
</svg>
